<?xml version="1.0" encoding="UTF-8"?> <svg xmlns="http://www.w3.org/2000/svg" xmlns:xlink="http://www.w3.org/1999/xlink" version="1.1" width="240" height="65" viewBox="0 0 240 65"><defs><clipPath id="clip_0"><path transform="matrix(1,0,0,-1,0,65)" d="M0 65H240V0H0Z"></path></clipPath></defs><g id="layer_1" data-name="Layer 1"><path transform="matrix(1,0,0,-1,0,65)" d="M153.514 17.05H133.04502V47.416H153.514Z" fill="#91735e"></path><path transform="matrix(1,0,0,-1,0,65)" d="M217.62 17.95H200.525V46.261H217.62Z" fill="#91735e"></path><g clip-path="url(#clip_0)"><path transform="matrix(1,0,0,-1,134.047,19.3513)" d="M0 0V-26.28C2.266-26.28 4.453-26.27 6.64-26.285 7.83-26.293 8.946-26.082 10.011-25.507 12.296-24.275 13.565-22.394 13.592-19.801 13.641-15.218 13.609-10.634 13.601-6.051 13.601-5.624 13.591-5.184 13.495-4.771 12.815-1.833 10.382 .238 7.427 .419 5.072 .564 2.701 .444 .337 .455 .049 .456-.037 .353 0 0M81.412-9.811C81.422-8.587 81.433-7.363 81.438-6.138 81.438-6.067 81.386-5.995 81.345-5.835 81.281-5.176 81.285-4.501 81.137-3.862 80.785-2.335 79.958-1.16 78.522-.406 77.349 .21 76.099 .403 74.825 .434 72.64 .487 70.453 .449 68.267 .449H67.777V-26.254H71.994V-16.261H75.035C75.308-17.233 75.595-18.19 75.846-19.157 76.436-21.43 77.01-23.708 77.587-25.984 77.65-26.233 77.8-26.287 78.04-26.285 79.342-26.275 80.644-26.281 81.946-26.278 82.032-26.278 82.118-26.253 82.242-26.233 81.775-24.566 81.314-22.942 80.865-21.314 80.291-19.231 79.736-17.143 79.146-15.064 79.055-14.746 79.091-14.56 79.333-14.34 80.648-13.144 81.379-11.675 81.412-9.811M95.917-32.797C59.782-32.841 23.647-32.839-12.488-32.836-12.518-32.836-12.548-32.821-12.609-32.804V7.014C23.536 7.014 59.681 7.014 95.871 7.012 95.917-6.244 95.917-19.498 95.917-32.797" fill="#91735e"></path><path transform="matrix(1,0,0,-1,89.0077,63.58)" d="M0 0C-.024 20.813-.024 41.626-.024 62.484 .048 62.529 .121 62.529 .229 62.529 .836 62.294 1.402 62.045 1.978 61.825 4.676 60.792 7.377 59.77 10.075 58.737 12.175 57.934 14.269 57.116 16.369 56.314 18.221 55.606 20.079 54.913 21.932 54.21 23.699 53.54 25.466 52.872 27.225 52.184 27.341 52.139 27.407 51.938 27.472 51.799 27.503 51.733 27.477 51.64 27.477 51.56 27.477 38.055 27.475 24.551 27.486 11.046 27.487 10.607 27.352 10.434 26.932 10.279 24.822 9.503 22.733 8.67 20.633 7.867 18.474 7.041 16.311 6.228 14.151 5.406 12.108 4.629 10.067 3.848 8.025 3.067 6.115 2.336 4.207 1.601 2.296 .874 1.567 .596 .832 .336 .086 .034 .072 0 .024 0 0 0" fill="#099f9d"></path><path transform="matrix(1,0,0,-1,9.6641,8.719299)" d="M0 0C25.359 .045 50.717 .045 76.105 .045V-6.319H7.742V-40.747H76.102V-47.141H.045C0-31.443 0-15.744 0 0" fill="#099f9d"></path><path transform="matrix(1,0,0,-1,215.4328,29.1917)" d="M0 0C-.03 1.256-.034 2.542-.033 3.872 .001 3.845 .053 3.773 .052 3.702 .047 2.478 .036 1.254 0 0" fill="#6f6f4b"></path><path transform="matrix(1,0,0,-1,188.3835,25.123299)" d="M0 0C.066-.084 .176-.212 .176-.341 .185-4.819 .184-9.296 .179-13.773 .179-13.889 .115-14.004 .044-14.129 .001-11.783-.007-9.426-.009-7.069-.011-4.727-.008-2.386 0 0" fill="#91735e"></path><path transform="matrix(1,0,0,-1,191.4027,41.858903)" d="M0 0C.187 .456 .65 .446 1.083 .547 1.121 .526 1.121 .483 1.121 .483 .76 .32 .398 .157 0 0" fill="#91735e"></path><path transform="matrix(1,0,0,-1,191.7187,22.658699)" d="M0 0C-.202-.33-.422-.286-.637 .038-.439 .057-.236 .04 0 0" fill="#91735e"></path><path transform="matrix(1,0,0,-1,188.525,24.0316)" d="M0 0C-.002-.202-.035-.424-.101-.653-.1-.447-.066-.233 0 0" fill="#91735e"></path><path transform="matrix(1,0,0,-1,188.3835,39.783)" d="M0 0C.211-.078 .411-.195 .102-.446 .044-.314 .019-.175 0 0" fill="#91735e"></path><path transform="matrix(1,0,0,-1,192.6257,23.0955)" d="M0 0C-.151 .038-.315 .107-.481 .213-.327 .177-.17 .104 0 0" fill="#91735e"></path><path transform="matrix(1,0,0,-1,188.9196,23.440499)" d="M0 0C-.046-.116-.121-.245-.231-.377-.188-.257-.109-.136 0 0" fill="#91735e"></path><path transform="matrix(1,0,0,-1,192.8969,23.408)" d="M0 0C-.089 .048-.179 .126-.263 .24-.171 .194-.086 .112 0 0" fill="#91735e"></path><path transform="matrix(1,0,0,-1,191.9495,22.7332)" d="M0 0C-.023-.021-.051-.007-.087 .035-.069 .045-.039 .035 0 0" fill="#91735e"></path><path transform="matrix(1,0,0,-1,192.5497,41.378)" d="M0 0C-.026 .003-.026 .045-.026 .067-.008 .088 .01 .088 .056 .086 .064 .055 .045 .026 0 0" fill="#91735e"></path><path transform="matrix(1,0,0,-1,29.7076,42.4037)" d="M0 0C.734 0 1.367 .26 1.899 .779 2.431 1.298 2.697 1.925 2.697 2.659V5.66C2.697 6.419 2.431 7.059 1.899 7.578 1.367 8.097 .734 8.357 0 8.357H-2.241V0ZM-.532 11.814C.202 11.814 .836 12.08 1.367 12.612 1.899 13.143 2.165 13.776 2.165 14.511V17.512C2.165 18.246 1.899 18.879 1.367 19.411 .836 19.943 .202 20.209-.532 20.209H-2.241V11.814ZM-6.229-3.457V23.665H.266C1.076 23.665 1.836 23.507 2.545 23.19 3.254 22.874 3.874 22.449 4.406 21.918 4.938 21.386 5.362 20.765 5.678 20.056 5.995 19.347 6.153 18.587 6.153 17.777V14.624C6.153 13.763 5.938 12.902 5.508 12.042 5.33 11.712 5.121 11.409 4.881 11.13 4.64 10.851 4.38 10.573 4.102 10.295 4.457 10.042 4.786 9.756 5.09 9.439 5.394 9.123 5.647 8.788 5.849 8.433 6.406 7.47 6.685 6.508 6.685 5.546V2.393C6.685 1.583 6.526 .822 6.21 .115 5.893-.595 5.47-1.215 4.938-1.747 4.406-2.278 3.785-2.697 3.077-3 2.367-3.305 1.608-3.457 .798-3.457Z" fill="#099f9d"></path><path transform="matrix(1,0,0,-1,51.1686,36.553804)" d="M0 0-2.051 12.612-4.102 0ZM1.519-9.307 .57-3.457H-4.672L-5.584-9.307H-9.61L-4.938 17.815H.836L5.508-9.307Z" fill="#099f9d"></path><path transform="matrix(1,0,0,-1,68.907,46.3922)" d="M0 0C-.887 0-1.766 .165-2.64 .494-3.514 .823-4.242 1.279-4.824 1.861-6.065 3.153-6.685 4.685-6.685 6.458V27.654H-2.697V6.458C-2.697 5.699-2.431 5.052-1.899 4.52-1.368 3.989-.735 3.723 0 3.723 .76 3.723 1.406 3.989 1.937 4.52 2.469 5.052 2.735 5.699 2.735 6.458V27.654H6.723V6.458C6.723 4.685 6.102 3.153 4.862 1.861 4.279 1.279 3.552 .823 2.678 .494 1.804 .165 .911 0 0 0" fill="#099f9d"></path><path transform="matrix(1,0,0,-1,141.0925,42.551004)" d="M0 0C.556 0 1.039 .2 1.45 .598 1.861 .997 2.066 1.474 2.066 2.03V17.22C2.066 17.776 1.861 18.259 1.45 18.671 1.039 19.081 .556 19.287 0 19.287H-3.118V0ZM-6.924-3.553V22.839H.254C1.027 22.839 1.752 22.688 2.429 22.386 3.105 22.084 3.697 21.679 4.205 21.172 4.713 20.664 5.117 20.072 5.419 19.396 5.721 18.718 5.873 17.993 5.873 17.22V2.03C5.873 1.256 5.721 .532 5.419-.144 5.117-.821 4.713-1.414 4.205-1.921 3.697-2.429 3.105-2.827 2.429-3.118 1.752-3.407 1.027-3.553 .254-3.553Z" fill="#ffffff"></path><path transform="matrix(1,0,0,-1,153.3453,45.849504)" d="M0 0V25.884H10.55V22.585H3.807V14.574H9.498V11.275H3.807V3.299H10.55V0Z" fill="#ffffff"></path><path transform="matrix(1,0,0,-1,176.0023,46.356599)" d="M0 0C-.87 0-1.722 .157-2.556 .471-3.39 .785-4.084 1.22-4.64 1.776-5.22 2.379-5.667 3.05-5.981 3.788-6.296 4.524-6.453 5.316-6.453 6.162V20.736C-6.453 21.557-6.296 22.343-5.981 23.092-5.667 23.841-5.22 24.506-4.64 25.086-4.084 25.642-3.39 26.083-2.556 26.409-1.722 26.736-.87 26.899 0 26.899 .846 26.899 1.68 26.736 2.501 26.409 3.323 26.083 4.011 25.642 4.569 25.086 5.172 24.506 5.624 23.841 5.927 23.092 6.229 22.343 6.38 21.557 6.38 20.736V17.908H2.574V20.736C2.574 21.437 2.321 22.047 1.813 22.567 1.305 23.086 .702 23.346 0 23.346-.726 23.346-1.34 23.086-1.848 22.567-2.357 22.047-2.61 21.437-2.61 20.736V6.162C-2.61 5.438-2.357 4.821-1.848 4.314-1.34 3.806-.726 3.553 0 3.553 .702 3.553 1.305 3.806 1.813 4.314 2.321 4.821 2.574 5.438 2.574 6.162V8.954H6.38V6.162C6.38 4.446 5.777 2.984 4.569 1.776 4.011 1.22 3.323 .785 2.501 .471 1.68 .157 .846 0 0 0" fill="#ffffff"></path><path transform="matrix(1,0,0,-1,194.4544,23.010601)" d="M0 0C-.725 0-1.341-.26-1.848-.779-2.357-1.299-2.611-1.909-2.611-2.61V-17.184C-2.611-17.908-2.357-18.525-1.848-19.032-1.341-19.54-.725-19.793 0-19.793 .725-19.793 1.341-19.54 1.848-19.032 2.357-18.525 2.611-17.908 2.611-17.184V-2.61C2.611-1.909 2.357-1.299 1.848-.779 1.341-.26 .725 0 0 0M0-23.346C-.87-23.346-1.716-23.189-2.537-22.876-3.36-22.561-4.048-22.126-4.604-21.57-5.184-20.967-5.631-20.296-5.946-19.558-6.26-18.822-6.416-18.03-6.416-17.184V-2.61C-6.416-1.789-6.26-1.003-5.946-.254-5.631 .495-5.184 1.16-4.604 1.74-4.048 2.296-3.36 2.737-2.537 3.063-1.716 3.39-.87 3.553 0 3.553 .87 3.553 1.722 3.39 2.556 3.063 3.39 2.737 4.084 2.296 4.64 1.74 5.195 1.16 5.631 .495 5.946-.254 6.259-1.003 6.416-1.789 6.416-2.61V-17.184C6.416-18.03 6.259-18.822 5.946-19.558 5.631-20.296 5.195-20.967 4.64-21.57 4.084-22.126 3.39-22.561 2.556-22.876 1.722-23.189 .87-23.346 0-23.346" fill="#ffffff"></path><path transform="matrix(1,0,0,-1,212.689,31.131)" d="M0 0C.701 0 1.311 .248 1.831 .743 2.35 1.239 2.61 1.837 2.61 2.538V5.293C2.61 5.994 2.35 6.598 1.831 7.105 1.311 7.613 .701 7.867 0 7.867H-1.632V0ZM3.516-14.719-1.196-3.553H-1.632V-14.719H-5.438V11.165H.761C1.534 11.165 2.266 11.014 2.955 10.713 3.644 10.41 4.242 10.005 4.749 9.498 5.257 8.991 5.661 8.398 5.964 7.722 6.265 7.045 6.416 6.32 6.416 5.546V5.51L6.162 2.03C6.138 1.426 6.048 .846 5.89 .29 5.733-.266 5.486-.785 5.148-1.269 4.518-2.164 3.722-2.804 2.755-3.191L7.649-14.719Z" fill="#ffffff"></path></g></g></svg>
